<svg width="1064" height="196" viewBox="0 0 1064 196" fill="none" xmlns="http://www.w3.org/2000/svg">
<path fill-rule="evenodd" clip-rule="evenodd" d="M115.439 0C113.545 0 111.59 0.0787934 109.794 0.153675L109.781 0.154224L109.767 0.154867C68.0935 2.1882 32.3661 30.4972 20.7932 70.6814C18.2133 79.4436 16.8876 88.5845 16.8096 97.7921L16.8094 97.8078V98.5006C16.8094 106.083 18.4696 114.694 19.7593 120.385L19.7683 120.425L19.7783 120.465C19.875 120.852 19.9913 121.23 20.1727 121.65C20.9515 124.603 21.8413 127.515 22.8869 130.428C21.3355 133.458 18.467 138.109 15.0969 143.243C11.2776 149.061 6.98324 155.247 3.67111 159.866C3.45659 160.136 3.32389 160.368 3.27243 160.458C3.21768 160.554 3.16704 160.65 3.12833 160.726C-1.04455 167.757 -1.00027 176.579 3.00668 183.615L3.0104 183.621L3.01415 183.628C7.13374 190.794 14.7522 195.196 22.9319 195.196H108.743L108.908 195.203C110.614 195.274 112.345 195.346 114.085 195.346C140.185 195.346 164.744 185.254 183.342 166.731C201.933 148.288 212.257 123.73 212.413 97.6954L212.413 97.6843V96.9961C212.413 91.8583 211.694 85.6522 210.229 78.6339L210.185 78.4229L210.117 78.2184C210.117 78.2184 210.115 78.2144 210.112 78.2031C210.109 78.192 210.104 78.1769 210.098 78.1568C210.085 78.1137 210.071 78.0656 210.052 77.9965L210.046 77.9754C210.028 77.9122 210.002 77.823 209.972 77.7237C209.216 73.9241 208.174 70.1487 206.953 66.4967C207.064 66.2135 207.153 65.9428 207.225 65.6929C207.452 64.9394 208.217 63.3193 209.59 60.8846C210.909 58.5444 212.626 55.7306 214.531 52.7355C218.338 46.7493 222.815 40.1623 226.17 35.4278L226.334 35.1956L226.397 35.0706C226.447 34.993 226.523 34.8719 226.604 34.723C230.79 27.6196 230.755 18.8667 226.752 11.749C222.699 4.54221 215.058 0.150452 206.817 0.150452H120.781L120.616 0.14358C118.91 0.0723071 117.179 0 115.439 0ZM38.0043 75.0265C47.4948 42.3736 76.6122 19.381 110.724 17.7336C112.394 17.6576 113.96 17.5872 115.439 17.5872C116.917 17.5872 118.487 17.6578 120.075 17.7334L120.164 17.7376H206.968C208.83 17.7376 210.621 18.7942 211.558 20.4444C212.465 22.0433 212.491 23.969 211.635 25.5866C207.649 31.2282 204.188 37.228 200.837 43.0363L200.75 43.1872C197.311 49.1489 193.984 54.9041 190.195 60.2129C188.39 62.6803 188.03 65.7856 189.035 68.5514L189.046 68.5816L189.058 68.6116C190.706 72.9113 192.005 77.5258 192.947 82.1638L192.964 82.245L192.984 82.3253C193.037 82.5374 193.089 82.7202 193.125 82.8472L193.129 82.8587C193.143 82.907 193.154 82.9478 193.164 82.9839C193.174 83.0175 193.182 83.0471 193.189 83.0751C194.277 88.6136 194.828 93.434 194.828 97.0713V97.662C194.534 141.8 158.293 177.759 114.16 177.759C112.682 177.759 111.112 177.688 109.524 177.613L109.435 177.609H23.0072C21.0856 177.609 19.3243 176.576 18.4172 174.977L18.4064 174.958L18.3953 174.939C17.5278 173.452 17.4669 171.53 18.2899 169.873C18.4118 169.701 18.5459 169.511 18.6914 169.305C20.8222 166.292 25.3895 159.832 29.8178 153.085C32.2439 149.388 34.6538 145.566 36.6104 142.149C38.4944 138.86 40.1354 135.647 40.8473 133.224C41.4889 131.236 41.348 129.144 40.5823 127.326C39.1548 123.751 38.0053 120.089 37.0661 116.331L37.0315 116.192L36.8224 115.565C35.3003 108.635 34.5447 102.825 34.5447 98.5006V97.9168C34.6182 90.3559 35.6985 82.8834 37.8505 75.6365L38.0043 75.1188V75.0265Z" fill="#0043E0"/>
<path fill-rule="evenodd" clip-rule="evenodd" d="M81.4286 98.6511C81.4286 117.233 96.5594 132.368 115.138 132.368C133.716 132.368 148.847 117.233 148.847 98.6511C148.847 80.0689 133.716 64.9343 115.138 64.9343C96.5594 64.9343 81.4286 80.0689 81.4286 98.6511ZM99.6374 98.6511C99.6374 90.0604 106.55 83.1469 115.138 83.1469C123.612 83.1469 130.638 90.0653 130.638 98.6511C130.638 107.242 123.726 114.155 115.138 114.155C106.55 114.155 99.6374 107.242 99.6374 98.6511Z" fill="#0043E0"/>
<path d="M108.737 50.2622C113.681 49.635 117.181 45.1185 116.553 40.1742C115.926 35.2299 111.41 31.7302 106.465 32.3574C100.579 33.104 94.8064 34.6328 89.3018 36.9129C81.1942 40.2712 73.8275 45.1935 67.6222 51.3987C64.0981 54.9229 64.0981 60.6367 67.6222 64.1608C71.1464 67.685 76.8602 67.685 80.3843 64.1608C84.9136 59.6315 90.2907 56.0386 96.2086 53.5874C100.226 51.9231 104.44 50.8072 108.737 50.2622Z" fill="#0043E0"/>
<path d="M125.82 41.1831C127.496 36.4897 132.66 34.044 137.354 35.7205C150.332 40.3566 161.56 48.8923 169.499 60.1581C177.438 71.424 181.699 84.869 181.699 98.6511C181.699 103.635 177.659 107.675 172.675 107.675C167.691 107.675 163.651 103.635 163.651 98.6511C163.651 88.5913 160.541 78.7776 154.746 70.5545C148.951 62.3313 140.756 56.101 131.282 52.717C126.589 51.0405 124.143 45.8766 125.82 41.1831Z" fill="#0043E0"/>
<path d="M169.144 120.496C173.425 123.048 174.827 128.587 172.275 132.868C168.789 138.715 164.452 143.96 159.438 148.448C155.724 151.771 150.019 151.455 146.695 147.741C143.371 144.027 143.688 138.322 147.402 134.998C151.062 131.723 154.228 127.895 156.772 123.627C159.324 119.346 164.863 117.944 169.144 120.496Z" fill="#0043E0"/>
<path d="M82.5033 147.379C84.5877 142.852 89.9474 140.872 94.4745 142.957C102.662 146.727 111.734 148.154 120.683 147.081C125.632 146.487 130.125 150.017 130.718 154.966C131.312 159.914 127.781 164.407 122.833 165C110.572 166.471 98.143 164.515 86.926 159.351C82.3989 157.266 80.4188 151.907 82.5033 147.379Z" fill="#0043E0"/>
<path d="M68.369 83.9411C69.872 79.1892 67.2383 74.1186 62.4865 72.6156C57.7346 71.1126 52.664 73.7463 51.161 78.4981C48.5966 86.6052 47.5969 95.1476 48.2382 103.667C48.6123 108.637 52.9445 112.363 57.9143 111.988C62.8841 111.614 66.6097 107.282 66.2356 102.312C65.7675 96.0939 66.4972 89.8587 68.369 83.9411Z" fill="#0043E0"/>
<path d="M281.082 156.595L329.529 38.4322H362.783L410.555 156.595H379.158L368.354 128.067H322.27L311.298 156.595H281.082ZM331.048 104.941H359.745L345.565 67.129L331.048 104.941Z" fill="black"/>
<path d="M441.176 67.2978V118.614C441.176 123.453 442.639 127.392 445.565 130.431C448.604 133.357 452.542 134.82 457.381 134.82C460.87 134.82 463.965 134.201 466.666 132.963C469.366 131.725 471.617 129.981 473.418 127.73V67.2978H500.764V156.595H473.418V150.519C470.154 152.994 466.441 154.907 462.277 156.258C458.225 157.608 453.949 158.284 449.448 158.284C438.982 158.284 430.429 154.907 423.789 148.155C417.15 141.403 413.83 132.794 413.83 122.328V67.2978H441.176Z" fill="black"/>
<path d="M530.36 129.418V90.0864H512.298V67.2978H530.36V44.3404L557.707 38.4322V67.2978H582.69V90.0864H557.707V124.016C557.707 127.955 558.551 130.768 560.239 132.456C562.039 134.032 565.134 134.82 569.523 134.82C571.661 134.82 573.687 134.707 575.6 134.482C577.513 134.144 579.595 133.638 581.846 132.963V155.076C579.37 155.864 576.219 156.483 572.393 156.933C568.566 157.496 565.359 157.777 562.771 157.777C552.08 157.777 543.977 155.414 538.463 150.687C533.061 145.848 530.36 138.758 530.36 129.418Z" fill="black"/>
<path d="M593.365 156.595V38.4322L620.712 32.524V73.3748C623.975 70.899 627.633 68.9859 631.684 67.6354C635.848 66.285 640.181 65.6098 644.682 65.6098C655.148 65.6098 663.701 68.9859 670.34 75.738C676.98 82.4902 680.3 91.0993 680.3 101.565V156.595H652.953V105.279C652.953 100.44 651.434 96.5573 648.396 93.6313C645.47 90.5929 641.587 89.0736 636.748 89.0736C633.26 89.0736 630.165 89.6926 627.464 90.9305C624.763 92.1684 622.512 93.9127 620.712 96.1634V156.595H593.365Z" fill="black"/>
<path d="M737.918 156.933C731.615 156.933 725.651 155.751 720.024 153.388C714.51 151.025 709.727 147.818 705.676 143.766C701.625 139.602 698.417 134.763 696.054 129.249C693.691 123.622 692.509 117.658 692.509 111.356C692.509 105.054 693.691 99.1456 696.054 93.6313C698.53 88.1171 701.85 83.3343 706.013 79.2829C710.177 75.2316 715.073 72.0243 720.699 69.6611C726.439 67.2978 732.516 66.1162 738.93 66.1162C742.982 66.1162 746.92 66.6226 750.747 67.6354C754.573 68.6482 758.118 70.1112 761.381 72.0243V67.2978H788.39V155.751C788.39 167.793 784.395 177.021 776.405 183.435C768.415 189.963 756.992 193.226 742.138 193.226C735.048 193.226 728.239 192.551 721.712 191.2C715.185 189.85 709.277 187.937 703.988 185.461L713.103 164.192C717.942 166.442 722.725 168.13 727.452 169.256C732.178 170.381 736.905 170.944 741.631 170.944C748.046 170.944 752.885 169.65 756.148 167.061C759.412 164.473 761.044 160.591 761.044 155.414V149.843C757.668 152.094 754.01 153.838 750.071 155.076C746.133 156.314 742.081 156.933 737.918 156.933ZM719.349 111.356C719.349 117.77 721.6 123.172 726.101 127.561C730.603 131.837 736.117 133.976 742.644 133.976C746.358 133.976 749.734 133.413 752.772 132.288C755.923 131.162 758.68 129.53 761.044 127.392V95.8258C758.68 93.8001 755.923 92.2246 752.772 91.0993C749.621 89.8614 746.301 89.2424 742.813 89.2424C736.286 89.2424 730.715 91.3806 726.101 95.657C721.6 99.9334 719.349 105.166 719.349 111.356Z" fill="black"/>
<path d="M887.066 144.779C881.439 149.506 875.643 152.938 869.679 155.076C863.827 157.214 857.187 158.284 849.76 158.284C843.008 158.284 836.649 157.102 830.685 154.739C824.72 152.375 819.544 149.112 815.155 144.948C810.879 140.784 807.446 135.889 804.858 130.262C802.382 124.523 801.144 118.446 801.144 112.031C801.144 105.616 802.326 99.5958 804.689 93.9689C807.165 88.2296 810.485 83.278 814.648 79.1141C818.812 74.9503 823.708 71.6867 829.334 69.3235C835.074 66.9602 841.207 65.7786 847.734 65.7786C854.261 65.7786 860.282 67.0165 865.796 69.4923C871.311 71.9681 876.037 75.3442 879.976 79.6205C884.027 83.8969 887.178 89.0736 889.429 95.1506C891.68 101.115 892.805 107.586 892.805 114.563V121.315H829.166C830.966 125.479 833.78 128.912 837.606 131.612C841.432 134.201 845.934 135.495 851.11 135.495C854.824 135.495 858.2 134.932 861.239 133.807C864.277 132.569 866.865 130.881 869.004 128.743L887.066 144.779ZM847.228 88.0608C842.726 88.0608 838.844 89.2987 835.58 91.7745C832.317 94.2503 830.01 97.7389 828.659 102.24H865.965C864.502 97.964 862.083 94.5316 858.706 91.9433C855.443 89.3549 851.617 88.0608 847.228 88.0608Z" fill="black"/>
<path d="M934.116 158.115C924.663 158.115 916.898 155.526 910.821 150.35C904.744 145.173 901.706 138.533 901.706 130.431C901.706 121.991 904.913 115.407 911.327 110.681C917.854 105.954 926.914 103.591 938.505 103.591C941.994 103.591 945.426 103.816 948.802 104.266C952.178 104.716 955.498 105.335 958.761 106.123V101.734C958.761 97.2325 957.299 93.9127 954.373 91.7745C951.559 89.5238 947.339 88.3984 941.712 88.3984C938.224 88.3984 934.285 88.9611 929.896 90.0864C925.507 91.2118 920.443 93.0124 914.703 95.4882L904.913 75.4004C912.115 72.1369 919.149 69.7173 926.013 68.1418C932.991 66.4538 939.855 65.6098 946.608 65.6098C958.987 65.6098 968.608 68.592 975.473 74.5564C982.338 80.4083 985.77 88.6797 985.77 99.3707V156.595H958.761V151.194C955.16 153.67 951.334 155.47 947.283 156.595C943.344 157.608 938.955 158.115 934.116 158.115ZM927.701 129.924C927.701 132.738 928.939 134.932 931.415 136.508C933.891 138.083 937.323 138.871 941.712 138.871C944.976 138.871 948.014 138.533 950.828 137.858C953.754 137.183 956.398 136.114 958.761 134.651V123.172C956.173 122.497 953.529 121.991 950.828 121.653C948.127 121.315 945.37 121.146 942.556 121.146C937.83 121.146 934.172 121.934 931.584 123.51C928.996 124.973 927.701 127.111 927.701 129.924Z" fill="black"/>
<path d="M1002.02 156.595V67.2978H1029.37V76.2445C1032.3 72.7558 1035.73 70.0549 1039.67 68.1418C1043.61 66.2287 1048 65.2722 1052.83 65.2722C1055.42 65.3847 1057.5 65.6098 1059.08 65.9474C1060.66 66.1724 1062.01 66.6789 1063.13 67.4666V91.2681C1061.33 90.4803 1059.31 89.8614 1057.05 89.4112C1054.8 88.8485 1052.5 88.5672 1050.13 88.5672C1045.86 88.5672 1041.86 89.58 1038.15 91.6057C1034.55 93.6313 1031.62 96.3885 1029.37 99.8771V156.595H1002.02Z" fill="black"/>
</svg>
